OpenSim_Sub09_CSStiffKnee_GRF.mot
version=1
nRows=53
nColumns=19
inDegrees=no
endheader
time	lFx	lFy	lFz	lCOPx	lCOPy	lCOPz	rFx	rFy	rFz	rCOPx	rCOPy	rCOPz	lMx	lMy	lMz	rMx	rMy	rMz
0	14.18242211	406.66622575	33.34108333	0.66506140	0	-0.64929275	-16.87808333	308.99854705	-35.20924333	0.76545959	0	-0.33736474	0	3.70437042	0	0	0.27926251	0
0.01000000	14.54847931	406.90330256	33.37017732	0.66586175	0	-0.64910794	-14.88232084	308.47464835	-34.20718653	0.76568157	0	-0.33722277	0	3.62761251	0	0	0.44803322	0
0.02000000	14.67020132	407.02311856	33.36589442	0.66618258	0	-0.64897473	-13.87536209	307.96222833	-33.57351042	0.76566490	0	-0.33724725	0	3.58515655	0	0	0.52262323	0
0.03000000	14.59722817	406.99753570	33.35345290	0.66612201	0	-0.64889007	-13.58673419	307.56251864	-33.28190191	0.76551209	0	-0.33730876	0	3.56186744	0	0	0.53407435	-0.00000000
0.04000000	14.44639479	406.85872859	33.35050966	0.66597875	0	-0.64884782	-13.64354620	307.14911918	-33.16326716	0.76529650	0	-0.33731599	0	3.54506941	0	0	0.51608361	0
0.05000000	14.31955149	406.67121001	33.33221181	0.66596096	0	-0.64885419	-13.81874892	306.44587175	-33.08074091	0.76499620	0	-0.33729714	0	3.54691184	0	0	0.50501347	0
0.06000000	14.25510796	406.52821528	33.31504536	0.66605974	0	-0.64889016	-13.96501522	305.31478714	-32.96577378	0.76473776	0	-0.33728965	0	3.55540657	0	0	0.50661935	0
0.07000000	14.27410575	406.48856677	33.34420720	0.66615763	0	-0.64889328	-14.05596945	303.87866751	-32.80295865	0.76457837	0	-0.33730092	0	3.55558959	0	0	0.52393709	0
0.08000000	14.36606037	406.56185944	33.39603212	0.66619245	0	-0.64884831	-14.07906826	302.39491314	-32.62577100	0.76448353	0	-0.33735253	0	3.56800225	0	0	0.54294461	0.00000000
0.09000000	14.48112300	406.82194511	33.43601380	0.66615323	0	-0.64879767	-14.01651341	301.21517297	-32.44675801	0.76439791	0	-0.33745863	0	3.60256744	0	0	0.55123903	0
0.10000000	14.59122076	407.39187193	33.48819940	0.66603567	0	-0.64873896	-13.91279810	300.65354524	-32.25547039	0.76436536	0	-0.33755631	0	3.64267458	0	0	0.55543986	0
0.11000000	14.68699874	408.27854310	33.56181643	0.66583486	0	-0.64866433	-13.83818023	300.84888436	-32.08309682	0.76447204	0	-0.33763251	0	3.68884181	0	0	0.54830665	0.00000000
0.12000000	14.75635576	409.44113130	33.65595581	0.66563070	0	-0.64861825	-13.86600852	301.74043521	-31.98994735	0.76472925	0	-0.33768468	0	3.73399848	0	0	0.51916235	0
0.13000000	14.79570478	410.77968788	33.79050876	0.66559810	0	-0.64864556	-14.00852312	303.11415282	-32.02097703	0.76499591	0	-0.33771635	0	3.76027167	0	0	0.48179025	0
0.14000000	14.79229567	412.26425318	33.99246881	0.66565686	0	-0.64875555	-14.17736631	304.77177266	-32.19940443	0.76523798	0	-0.33772745	0	3.77699655	0	0	0.44075235	0
0.15000000	14.70995428	413.86404633	34.26819565	0.66565856	0	-0.64891949	-14.31008533	306.56654946	-32.50215860	0.76543769	0	-0.33771177	0	3.78396535	0	0	0.39606042	0
0.16000000	14.57536045	415.44902432	34.58431591	0.66563638	0	-0.64906470	-14.38917745	308.51145512	-32.88729728	0.76559827	0	-0.33767935	0	3.78952601	0	0	0.34592257	0
0.17000000	14.47458273	416.92801359	34.88583281	0.66560184	0	-0.64916421	-14.44027990	310.68446171	-33.29350387	0.76584463	0	-0.33763726	0	3.79581650	0	0	0.29899237	0
0.18000000	14.43826118	418.24364209	35.16293872	0.66565838	0	-0.64925774	-14.49018347	313.02909538	-33.66795704	0.76633813	0	-0.33758870	0	3.80754607	0	0	0.26021299	0
0.19000000	14.43576624	419.42594057	35.45590242	0.66584552	0	-0.64934728	-14.56342974	315.29831909	-33.99615187	0.76694637	0	-0.33752850	0	3.81279720	0	0	0.24849330	0
0.20000000	14.43819251	420.56165560	35.75284372	0.66610995	0	-0.64941573	-14.66829784	317.28905547	-34.30374122	0.76746670	0	-0.33750334	0	3.82286626	0	0	0.25182712	0
0.21000000	14.41564769	421.88028111	36.06961016	0.66638033	0	-0.64943898	-14.80372520	318.93755764	-34.60552171	0.76774905	0	-0.33756189	0	3.84943775	0	0	0.24845635	0
0.22000000	14.36584743	423.70444180	36.46087393	0.66656724	0	-0.64941421	-14.91938820	320.39306872	-34.86428153	0.76793981	0	-0.33766172	0	3.88883491	0	0	0.22287099	0
0.23000000	14.31580246	426.26891049	36.96414355	0.66663497	0	-0.64937933	-14.94573257	321.85462438	-35.05054723	0.76813679	0	-0.33770782	0	3.94566515	0	0	0.18580652	0
0.24000000	14.30306038	429.74657752	37.58539174	0.66653882	0	-0.64937760	-14.89638727	323.39100139	-35.15743861	0.76824350	0	-0.33768878	0	4.01852109	0	0	0.17046409	0
0.25000000	14.35843554	434.25677205	38.36746675	0.66632094	0	-0.64942018	-14.81272884	324.88958191	-35.20264484	0.76816574	0	-0.33764773	0	4.08521673	0	0	0.17458196	0
0.26000000	14.46500128	439.69169278	39.33270061	0.66624177	0	-0.64952740	-14.71835865	326.18150742	-35.21029476	0.76806004	0	-0.33762371	0	4.12615389	0	0	0.17531326	0
0.27000000	14.58803193	445.69339799	40.47428722	0.66636859	0	-0.64970681	-14.68648087	327.21395385	-35.21031852	0.76790607	0	-0.33760775	0	4.14994287	0	0	0.17247172	0
0.28000000	14.71519114	451.63443742	41.72622422	0.66668117	0	-0.64993102	-14.76620859	328.03262411	-35.23447608	0.76785502	0	-0.33757623	0	4.19928958	0	0	0.16558631	0
0.29000000	14.80788699	456.90617373	42.96605454	0.66716982	0	-0.65020442	-14.95004592	328.62916453	-35.29237024	0.76797902	0	-0.33754956	0	4.29720858	0	0	0.16968800	0
0.30000000	14.80428810	461.31409715	44.09024996	0.66768394	0	-0.65052784	-15.19257942	328.94293340	-35.34659576	0.76822191	0	-0.33751406	0	4.41810710	0	0	0.18604389	0
0.31000000	14.63863579	465.07848137	45.08251929	0.66812701	0	-0.65081797	-15.43341113	328.92835397	-35.33848493	0.76841512	0	-0.33745164	0	4.53426907	0	0	0.20185782	0
0.32000000	14.24799664	468.65874823	45.92377475	0.66860662	0	-0.65102944	-15.61553752	328.60596597	-35.27590390	0.76849749	0	-0.33739974	0	4.64373166	0	0	0.21694246	0
0.33000000	13.56864320	472.13539237	46.58445418	0.66915895	0	-0.65113749	-15.70697998	328.09795542	-35.18556044	0.76850926	0	-0.33736871	0	4.69245810	0	0	0.22391229	0
0.34000000	12.80327134	475.18900389	47.03311234	0.66961560	0	-0.65120930	-15.69669587	327.56025837	-35.07824950	0.76848615	0	-0.33734502	0	4.60493404	0	0	0.22151196	0
0.35000000	12.41578273	477.22795438	47.30149563	0.66945819	0	-0.65130077	-15.60389878	327.10843218	-34.97872716	0.76841353	0	-0.33734353	0	4.36335662	0	0	0.24132736	0
0.36000000	12.65839320	477.69027553	47.43019181	0.66880747	0	-0.65143835	-15.50617770	326.80973388	-34.92062089	0.76835556	0	-0.33734799	0	4.02210585	0	0	0.27449219	0
0.37000000	13.14734112	476.22279721	47.43115203	0.66821556	0	-0.65161787	-15.44586065	326.66794507	-34.89642858	0.76838944	0	-0.33734957	0	3.64791571	0	0	0.29295121	-0.00000000
0.38000000	13.46654461	472.67546263	47.22355948	0.66780555	0	-0.65178889	-15.41896831	326.61026625	-34.89773627	0.76849742	0	-0.33737071	0	3.32466361	0	0	0.30281793	0
0.39000000	13.48382888	467.29261871	46.73283470	0.66745115	0	-0.65191294	-15.43475619	326.55664890	-34.88072152	0.76874579	0	-0.33736064	0	3.06792853	0	0	0.29833494	0
0.40000000	13.27584532	460.66327840	45.94833656	0.66700898	0	-0.65199255	-15.47311334	326.38330529	-34.81096543	0.76906585	0	-0.33728350	0	2.83545182	0	0	0.27814904	0.00000000
0.41000000	13.06239071	453.30548279	44.87919169	0.66630410	0	-0.65198167	-15.51812508	326.05227354	-34.70573955	0.76946619	0	-0.33718365	0	2.61391686	0	0	0.25295986	0
0.42000000	13.05763610	445.67317883	43.57258109	0.66530472	0	-0.65180645	-15.59838622	325.52329158	-34.57695892	0.76979815	0	-0.33706528	0	2.39864373	0	0	0.25248797	0
0.43000000	13.38767250	438.11104915	42.05924738	0.66414195	0	-0.65147994	-15.69078740	324.76154929	-34.41102935	0.77004159	0	-0.33693189	0	2.17496126	0	0	0.26934383	0
0.44000000	14.02851116	430.65594596	40.32575087	0.66293704	0	-0.65110494	-15.74902286	323.76659189	-34.22965326	0.77014873	0	-0.33680030	0	1.96372093	0	0	0.30931168	0
0.45000000	14.86702454	423.33448129	38.45099580	0.66172400	0	-0.65078590	-15.75968203	322.57051364	-34.02934137	0.77012040	0	-0.33664730	0	1.78728929	0	0	0.36664946	0
0.46000000	15.77597786	416.32470240	36.61953347	0.66052272	0	-0.65051967	-15.73617596	321.23478401	-33.80131185	0.77007022	0	-0.33647731	0	1.65952378	0	0	0.40905096	0
0.47000000	16.54793926	409.93249304	34.99413616	0.65945675	0	-0.65032991	-15.66518475	319.75867690	-33.55282602	0.77004930	0	-0.33633477	0	1.58735950	0	0	0.43434283	0.00000000
0.48000000	16.90101215	404.42917751	33.71141634	0.65858133	0	-0.65025381	-15.57956644	318.19291486	-33.27705826	0.77000745	0	-0.33623765	0	1.53187162	0	0	0.45130879	0
0.49000000	16.68929599	399.90770835	32.84273242	0.65789334	0	-0.65027298	-15.49468041	316.64664820	-32.98255226	0.76991122	0	-0.33618672	0	1.45633078	0	0	0.44667181	0.00000000
0.50000000	16.03903447	396.15932266	32.28411201	0.65761351	0	-0.65036618	-15.44726447	315.13835914	-32.68643432	0.76967069	0	-0.33617412	0	1.36716784	0	0	0.44017161	0.00000000
0.51000000	15.16122424	392.55860834	31.86930024	0.65808106	0	-0.65051969	-15.45970655	313.49298267	-32.37650944	0.76929511	0	-0.33619391	0	1.25232233	0	0	0.44888959	0
0.52000000	14.24924553	388.52763897	31.47427504	0.65924268	0	-0.65074173	-15.50496575	311.41252029	-32.04851766	0.76887676	0	-0.33623119	0	1.10509624	0	0	0.47503251	0
